<svg
   width="210mm"
   height="297mm"
   viewBox="0 0 210 297"
   version="1.1"
   id="svg5">
  
  <defs
     id="defs2" />
  <g
     
     
     id="layer1">
    <path
       style="fill:none;stroke-width:0.264583;stroke:#000000;stroke-opacity:1"
       d="m 62.582183,205.05173 c 1.860082,0.009 3.687826,0.0772 5.526937,-0.33127 1.125863,-0.25007 2.18322,-0.76751 3.314102,-0.99379 3.681825,-0.73669 7.859731,-0.851 11.601564,-0.66399 1.989627,0.0994 3.982545,0.15843 5.967148,0.33126 1.556737,0.13556 3.077995,0.664 4.640625,0.664 1.018616,0 1.982787,-0.47041 2.982838,-0.664 2.425507,-0.46953 4.880493,-0.78915 7.292203,-1.32505 1.57052,-0.34899 3.0587,-1.03351 4.64062,-1.32653 3.05112,-0.56515 12.42204,-0.27856 15.24693,0.664 1.03083,0.34395 2.30284,1.19595 3.31557,1.65632 2.27926,1.0361 4.65353,1.68965 6.96094,2.65157 0.456,0.1901 0.85008,0.52808 1.32505,0.664 0.31895,0.0913 0.67333,-0.0801 0.99526,0 0.56926,0.14168 1.27059,1.98646 1.90808,1.64748 2.05813,-1.0944 1.95371,-8.51907 1.95371,-10.9037 0,-4.77295 1.44531,-10.54674 0.66253,-15.24693 -0.37378,-2.24435 -1.33237,-4.16273 -1.98905,-6.29841 -0.96027,-3.12301 -2.24517,-6.45073 -2.98284,-9.61251 -1.0669,-4.57293 -1.33615,-9.32621 -2.32031,-13.92188 -0.76444,-3.56964 -1.8304,-7.36236 -2.32032,-10.93903 -0.50034,-3.65285 -0.5994,-7.35044 -0.99967,-11.0156 -0.73717,-6.75 -1.66368,-13.41389 -1.66368,-20.23206 0,-1.35899 0.93342,-7.66424 0.99379,-8.28746 0.34665,-3.578822 0.69984,-7.945087 0.33273,-11.601568 -0.2182,-2.173311 -1.26944,-4.160197 -1.65778,-6.296938 -0.76606,-4.215016 -0.66253,-8.331742 -0.66253,-12.596823 0,-1.363078 -0.22347,-2.966061 0,-4.30789 0.44256,-2.657327 3.39556,-5.894525 3.45691,-7.217116 0.0209,-0.451012 -0.90299,0 -1.35449,0 -0.97956,0 -1.95912,0 -2.93867,0 -0.71272,0 -5.1353,0.200861 -5.25163,0.331263 -0.0696,0.07801 0.0739,0.239681 0,0.313598 -0.2736,0.273608 -3.3067,1.584208 -3.92362,1.969907 -2.66941,1.668942 -8.51227,5.259129 -10.58422,7.601382 -0.42704,0.482756 -0.63767,1.121542 -0.99526,1.657786 -1.37611,2.06366 -2.74516,2.58807 -4.84821,3.296433 -0.68918,0.232132 -1.1831,-0.01733 -1.966969,0.331264 -2.257557,1.003977 -4.534363,2.215523 -6.29694,3.978098 -1.107533,1.107535 -0.265671,0.943353 -0.662525,1.919853 -1.827985,4.497935 -3.18421,9.158542 -3.9781,13.921875 -0.377952,2.267715 -1.616197,4.42074 -1.989048,6.629676 -0.07204,0.42681 0.06832,0.87112 0,1.29855 -0.333872,2.08871 -1.025035,4.38438 -1.298551,6.57373 -0.432252,3.45993 -2.929773,6.51095 -4.23133,9.76268 -0.201258,0.50281 -0.208513,1.38626 -0.331264,1.93752 -0.601943,2.70324 -1.158272,5.61008 -1.971384,8.25065 -1.220462,3.96346 -0.216059,-1.21286 -0.993788,2.65158 -1.339001,6.65335 -0.471816,13.5142 -1.646007,20.17317 -0.121354,0.68822 -0.537565,1.30149 -0.662528,1.98905 -0.213495,1.1747 -0.07041,2.47356 -0.331261,3.64537 -1.238374,5.56307 -0.320381,-3.26666 -1.326525,6.29841 -0.06936,0.65938 0.138837,1.34073 0,1.98905 -0.270735,1.26424 -1.071491,2.37757 -1.325052,3.64536 -0.08845,0.44225 0.202245,1.23177 0,1.63423 -0.400024,0.79606 -0.953161,1.51141 -1.326523,2.32032 -0.964726,2.09012 -1.152628,4.53676 -1.98905,6.62967 -0.495538,1.23995 -1.343078,2.23812 -1.989048,3.3141 -1.09901,1.8306 -1.794705,4.30201 -2.651577,6.29841 -0.111731,0.26033 -0.527407,2.06034 -0.652219,2.24229 -0.17667,0.25754 -0.485304,0.40535 -0.662525,0.66252 -0.386855,0.56137 0,8.99542 0,10.43257"
       id="nh" />
    <path
       style="fill:currentColor;stroke:#000000;stroke-width:0.264583;stroke-opacity:1"
       d="m 70.030445,202.02914 c 4.237868,0.98758 4.376433,-0.67845 7.488015,-2.01114 0.569719,-0.24401 2.689913,0.43867 3.107981,0 0.998151,-1.04733 0.256212,-4.73808 0.02355,-5.79783 0.616754,-0.86825 -0.514765,-0.79513 -0.622774,-1.24702 -0.461835,-1.93231 0.708713,-0.009 -0.331263,-2.30265 -0.48972,-1.08006 -0.543444,0.18359 -0.796502,-1.11452 -0.06339,-0.32514 0.122934,-0.68618 0,-0.99379 -0.08713,-0.21801 -1.35165,-1.12288 -1.560616,-1.26174 -0.148179,-0.0985 -1.197628,0.007 -1.263216,0 -0.776512,-0.0862 -1.612336,-0.66167 -2.320313,-0.33126 -1.623256,0.75755 -2.426804,2.69958 -3.947181,3.64684 -0.64243,0.40026 -1.845906,-0.23234 -2.589739,0 -0.02596,0.008 0,1.67061 0,3.08 0,0.0903 -0.311365,2.6093 -0.300345,2.62655 0.330907,0.51795 1.84136,2.44744 2.426317,2.73991 0.09876,0.0494 0.253182,-0.0781 0.331261,0 0.07808,0.0781 0,0.22084 0,0.33126 0.210047,0.21005 0.382976,0.46537 0.630136,0.63014 0.160068,0.10671 0.417619,-0.10754 0.577133,0 0.602234,0.406 -0.497853,1.37138 -0.85245,2.00525 z"
       id="hartford" />
    <path
       style="fill:currentColor;stroke:#000000;stroke-width:0.264583;stroke-opacity:1"
       d="m 81.715929,198.38377 c 0.945962,-0.1231 0.692409,1.69997 1.44725,2.07739 0.969372,0.48469 5.54904,0.59096 6.364666,0.31948 0.840152,-0.27963 1.418857,-0.68517 2.27467,-0.97023 0.783566,-0.261 3.011048,-0.48756 3.314102,-1.47081 0.232296,-0.75367 0,-1.7884 0,-2.58826 0,-1.83588 0.327594,-4.20775 -0.331264,-5.96568 -0.01826,-0.0487 -1.305716,-2.60365 -1.326522,-2.65158 -0.253961,-0.58493 -0.315212,-1.53995 -0.555051,-2.06119 -0.02305,-0.0501 -2.193909,0 -3.03584,0 -2.249929,0 -4.017693,-1.14093 -5.454796,0.93048 -0.12029,0.17339 0.09432,0.44431 0,0.63308 -0.287959,0.57635 -0.790141,1.04654 -0.993788,1.65779 -0.06777,0.2034 0.04917,1.9297 0,2.28645 -0.0154,0.11165 -2.773161,0.16048 -3.077064,0.16048 z"
       id="manchester" />
    <path
       style="fill:currentColor;stroke:#000000;stroke-width:0.264583;stroke-opacity:1"
       d="m 86.433111,184.59146 c 0.364818,-0.48188 9.211636,0.39262 9.823051,0 0.07943,-0.051 -0.331264,-3.94164 -0.331264,-4.66271 0,-1.07679 -0.457909,-1.96071 -0.662527,-2.97106 -0.07364,-0.36364 0.240964,-1.48658 0,-1.7741 -0.374341,-0.44665 -3.714584,-0.33126 -4.655347,-0.33126 -2.115542,0 -4.914762,-0.45647 -6.960938,0 -0.6223,0.13882 -0.169074,0.58101 -0.331261,0.90692 -1.512224,3.03878 1.3745,6.56716 3.118286,8.83221 z"
       id="concord" />
    <path
       style="fill:currentColor;stroke:#000000;stroke-width:0.264583;stroke-opacity:1"
       d="m 82.717078,176.32608 c -1.067893,0 -2.143384,0.12717 -3.203681,0 -0.798623,-0.0958 -1.539928,-0.46764 -2.320311,-0.66253 -0.185219,-0.0462 -0.418079,0.11195 -0.572717,0 -0.172522,-0.12489 0.02027,-1.45136 -1.2588,-1.1469 -1.014008,0.24137 -0.268409,0.36898 -0.541798,0.91576 -0.45937,0.91873 -1.058937,1.78512 -1.628341,2.58974 -0.565428,0.799 -0.428673,4.29742 0.184036,5.05286 0.23014,0.28375 0.356349,-0.35651 0.655164,0.28709 0.232481,0.50073 1.200764,1.80556 1.807959,2.25995 0.771268,0.57718 2.508282,-0.69441 3.109455,0.50794 1.246925,2.49385 0.491304,2.18325 0.934897,4.23428 0.0019,0.009 1.052105,0 1.757902,0 1.186751,0 1.393574,0.55245 2.471957,0.66252 0.156493,0.016 -0.300347,-2.88142 -0.300347,-2.98284 0,-1.96384 -0.485783,-4.32702 1.473753,-5.30462 0.785119,-0.39169 -0.556916,-1.25404 -0.811226,-1.63276 -0.983236,-1.46424 -1.507133,-2.85738 -1.757902,-4.78049 z"
       id="charleston" />
    <path
       style="fill:currentColor;stroke:#000000;stroke-width:0.264583;stroke-opacity:1"
       d="m 95.689334,199.37903 c 3.233793,1.37837 1.847929,1.98274 3.027005,3.45986 0.436954,0.54741 1.595011,-0.81137 1.908071,-0.96434 1.08185,-0.52863 2.98434,0.55516 4.05025,0 0.13849,-0.0721 0.22084,-0.22085 0.33126,-0.33127 0.33175,-0.22084 0.63872,-0.48445 0.99526,-0.66252 0.6598,-0.32954 2.19576,-0.82994 2.96075,-0.98348 2.23488,-0.44857 5.30809,1.21538 6.39264,-1.50909 0.59342,-1.49072 -0.72023,-3.05081 -1.32505,-4.24164 -0.0771,-0.15183 0.10836,-0.37951 0,-0.51088 -0.41932,-0.50838 -1.66537,0.38779 -2.22462,-0.73908 -0.89296,-1.79934 -0.20887,-3.97541 -1.96254,-5.26487 -0.30722,-0.22589 -0.77004,0.0747 -1.14397,0 -0.062,-0.0124 -1.4416,-0.5834 -1.7682,-0.33127 -0.41194,0.31801 -2.21211,3.63626 -2.28351,4.13416 -0.0546,0.38098 0.15977,2.27193 0,2.43074 -0.30302,0.30119 -0.8793,0.0994 -1.23819,0.33126 -0.087,0.0562 0.0496,0.21973 0,0.31065 -0.0988,0.18136 -3.02852,-0.25905 -3.574691,0 -0.09001,0.0427 0.08403,0.24536 0,0.29887 -0.253775,0.1616 -1.288211,0.31859 -1.579755,0.62278 -0.100291,0.10464 0.115776,0.65834 0,0.74791 -0.178443,0.13807 -0.449403,0.14001 -0.605108,0.3033 -0.278368,0.29191 0.234043,1.26698 0,1.62245 -0.07314,0.11108 -0.291245,-0.078 -0.398986,0 -0.544436,0.39401 -1.040411,0.85097 -1.560616,1.27646 z"
       id="hannaford">
    </path>
  </g>
</svg>
